<svg width="360" height="280" viewBox="0 0 360 280" fill="none" xmlns="http://www.w3.org/2000/svg">
  <defs>
    <linearGradient id="paint0_linear" x1="20" y1="40" x2="320" y2="260" gradientUnits="userSpaceOnUse">
      <stop stop-color="#2F80FF"/>
      <stop offset="1" stop-color="#38F9D7"/>
    </linearGradient>
    <linearGradient id="paint1_linear" x1="280" y1="20" x2="60" y2="240" gradientUnits="userSpaceOnUse">
      <stop stop-color="#FF8A8A"/>
      <stop offset="1" stop-color="#FFD26F" stop-opacity="0.9"/>
    </linearGradient>
    <linearGradient id="paint2_linear" x1="120" y1="80" x2="220" y2="200" gradientUnits="userSpaceOnUse">
      <stop stop-color="#FFFFFF" stop-opacity="0.85"/>
      <stop offset="1" stop-color="#DCE7FF" stop-opacity="0.35"/>
    </linearGradient>
    <filter id="filter0_b" x="0" y="16" width="360" height="264" filterUnits="userSpaceOnUse" color-interpolation-filters="sRGB">
      <feFlood flood-opacity="0" result="BackgroundImageFix"/>
      <feGaussianBlur in="BackgroundImageFix" stdDeviation="16"/>
      <feComposite in2="SourceAlpha" operator="in" result="effect1_backgroundBlur"/>
      <feBlend mode="normal" in="SourceGraphic" in2="effect1_backgroundBlur" result="shape"/>
    </filter>
  </defs>
  <g filter="url(#filter0_b)">
    <rect x="32" y="48" width="296" height="200" rx="32" fill="url(#paint2_linear)"/>
  </g>
  <g opacity="0.5">
    <path d="M48 200C92 172 96 112 152 112C208 112 212 172 256 200" stroke="url(#paint0_linear)" stroke-width="12" stroke-linecap="round" stroke-linejoin="round"/>
    <circle cx="152" cy="112" r="12" fill="url(#paint0_linear)"/>
    <circle cx="256" cy="200" r="10" fill="url(#paint1_linear)"/>
    <circle cx="48" cy="200" r="10" fill="url(#paint1_linear)"/>
  </g>
  <g opacity="0.75">
    <path d="M112 88H248" stroke="url(#paint1_linear)" stroke-width="8" stroke-linecap="round"/>
    <path d="M112 128H228" stroke="#5B8CFF" stroke-width="6" stroke-linecap="round"/>
    <path d="M112 164H216" stroke="#4DE0D1" stroke-width="6" stroke-linecap="round"/>
  </g>
  <g opacity="0.8">
    <circle cx="112" cy="224" r="14" fill="#4DE0D1"/>
    <circle cx="176" cy="224" r="14" fill="#5B8CFF"/>
    <circle cx="240" cy="224" r="14" fill="#FFAF65"/>
  </g>
</svg>
